<?xml version="1.0" standalone="no"?><!DOCTYPE svg PUBLIC "-//W3C//DTD SVG 1.1//EN" "http://www.w3.org/Graphics/SVG/1.1/DTD/svg11.dtd"><svg t="1697987533254" class="icon" viewBox="0 0 1024 1024" version="1.1" xmlns="http://www.w3.org/2000/svg" p-id="7714" xmlns:xlink="http://www.w3.org/1999/xlink" width="200" height="200"><path d="M835.4 665.2c13 1.4 24.4 9.2 30.6 20.2l-27.8 16.2-2.8-36.4zM871.2 788v69c0 11-9 20-20 20h-680c-11 0-20-9-20-20v-152c0-22 18-40 40-40h510" fill="#FFF3FA" p-id="7715"></path><path d="M762.6 663.8l-237.4-13.2-272 14.4-2-200.6 478 0.6c22 0 40 18 40 40V634" fill="#B3BEFF" p-id="7716"></path><path d="M701 665H253.2v-105.2" fill="#B3BEFF" p-id="7717"></path><path d="M667.2 463h-312v-140c0-22 18-40 40-40h232c22 0 40 18 40 40v140z" fill="#FFDEF1" p-id="7718"></path><path d="M253.2 542.6h514v60.2h-514z" fill="#F0F3FF" p-id="7719"></path><path d="M504.8 663.8l-96.6 29.6-94 34.4-70.4 33-92.6 11.2 1 91.2 11 11.4s79-5.6 117.8-23c39-17.4 45.4-24.2 45.4-24.2s47.6 46.4 138.8-1.8 119.8-45.8 119.8-45.8L798 764l-17.6-98.8-275.6-1.4z" fill="#FFBDE9" p-id="7720"></path><path d="M397.6 529.2c0 9.4-8.8 13.8-8.8 13.8s-8.8-4.4-8.8-13.8 8.8-20.2 8.8-20.2 8.8 10.8 8.8 20.2z" fill="#FFDEF1" p-id="7721"></path><path d="M376.6 531c8.2 4.8 7.6 14.6 7.6 14.6s-8.2 5.4-16.4 0.6-13.2-17.6-13.2-17.6 13.8-2.4 22 2.4z" fill="#FFDEF1" p-id="7722"></path><path d="M367.8 550c8.2-4.8 16.4 0.6 16.4 0.6s0.6 9.8-7.6 14.6-21.8 2.6-21.8 2.6 4.8-13 13-17.8z" fill="#FFDEF1" p-id="7723"></path><path d="M380 567.2c0-9.4 8.8-13.8 8.8-13.8s8.8 4.4 8.8 13.8-8.8 20.2-8.8 20.2-8.8-10.8-8.8-20.2z" fill="#FFDEF1" p-id="7724"></path><path d="M401 565.2c-8.2-4.8-7.6-14.6-7.6-14.6s8.2-5.4 16.4-0.6 13.2 17.6 13.2 17.6-13.8 2.2-22-2.4z" fill="#FFDEF1" p-id="7725"></path><path d="M409.8 546c-8.2 4.8-16.4-0.6-16.4-0.6s-0.6-9.8 7.6-14.6 21.8-2.6 21.8-2.6-4.8 13.2-13 17.8z" fill="#FFDEF1" p-id="7726"></path><path d="M496.8 515.6c0 10.6-9.8 15.6-9.8 15.6s-9.8-5-9.8-15.6 9.8-22.6 9.8-22.6 9.8 12 9.8 22.6z" fill="#FFB3E2" p-id="7727"></path><path d="M473.2 517.6c9.2 5.2 8.6 16.2 8.6 16.2s-9.2 6-18.4 0.8-14.8-19.8-14.8-19.8 15.4-2.6 24.6 2.8z" fill="#FFB3E2" p-id="7728"></path><path d="M463.4 539c9.2-5.2 18.4 0.8 18.4 0.8s0.6 11-8.6 16.2-24.6 2.8-24.6 2.8 5.6-14.6 14.8-19.8z" fill="#FFB3E2" p-id="7729"></path><path d="M477.2 558.2c0-10.6 9.8-15.6 9.8-15.6s9.8 5 9.8 15.6-9.8 22.6-9.8 22.6-9.8-12-9.8-22.6z" fill="#FFB3E2" p-id="7730"></path><path d="M500.8 556c-9.2-5.2-8.6-16.2-8.6-16.2s9.2-6 18.4-0.8 14.8 19.8 14.8 19.8-15.6 2.4-24.6-2.8z" fill="#FFB3E2" p-id="7731"></path><path d="M510.6 534.6c-9.2 5.2-18.4-0.8-18.4-0.8s-0.6-11 8.6-16.2 24.6-2.8 24.6-2.8-5.8 14.4-14.8 19.8z" fill="#FFB3E2" p-id="7732"></path><path d="M762.6 759.4c8.4 11.8 22.8 19 38.8 17.2 19-2.2 34.2-17.4 36.6-36.2 1.2-9.8-1-19-5.8-26.6M752.8 753.2c-7.4 4-16.2 5.8-25.4 5-21.2-2-38.2-19.2-40.2-40.4-1.4-15.6 5.2-29.6 16-38.6M770.4 634.2c5.8-1.8 12.2-2.4 18.6-2 28.2 1.6 51 24.8 52.2 52.8 0.4 10.4-2 20.2-6.6 28.8" fill="#F27CC0" p-id="7733"></path><path d="M724.2 701.6c-13.6-7-22.6-21.6-21.4-38.2 1.2-19.6 17-35.6 36.6-37.2 19-1.6 35.6 10.2 41.4 27M807 735.4c-6.2 11.4-17.8 19.8-31.8 21.2-22.4 2.2-42.2-14-44.4-36.4" fill="#F27CC0" p-id="7734"></path><path d="M794.8 687.8c15.4 0 35.6 7 34 22.8-1.4 12-11.2 21.8-23.2 23-13.6 1.4-25.4-7.6-28.4-19.8" fill="#F27CC0" p-id="7735"></path><path d="M733.4 683c0-19 16.6-34.2 36-32.2 14.8 1.6 26.8 13.6 28.4 28.4 1.6 14.4-6.2 27-18 32.8" fill="#F27CC0" p-id="7736"></path><path d="M763.6 688.2c-4.2-4.2-10-6.8-16.4-6.8-13 0-23.6 10.8-23 24 0.4 12 10.6 22 22.6 22.2 8.8 0.2 16.6-4.6 20.6-11.6" fill="#F27CC0" p-id="7737"></path><path d="M773.4 700m-12.4 0a12.4 12.4 0 1 0 24.8 0 12.4 12.4 0 1 0-24.8 0Z" fill="#F27CC0" p-id="7738"></path><path d="M753.4 772.6c5.6 3 10.4 8 13.2 14.4 5.4 12.6 1.4 27.6-9.6 35.8-9.2 6.8-20.8 7.6-30.4 3.2M718.2 825.8c-3.2 5.2-8 9.4-14 12.2-14 6.4-30.8 1.8-39.6-10.6-6.4-9.2-7.4-20.2-3.8-29.8M686.4 745.4c3-3.2 6.6-6 10.8-8 18-9.2 40.6-3 51.6 14 4 6.4 6 13.2 6.2 20.2" fill="#FFB3E2" p-id="7739"></path><path d="M681.8 804c-11 0.4-21.8-5.4-27.2-16-6.2-12.6-2.2-28.4 9.4-36.4 11.2-7.8 25.8-6.4 35.4 2M745.6 795.2c0.2 9.4-4 18.8-12.2 24.6-13 9.4-31.4 6.4-40.8-6.6" fill="#FFB3E2" p-id="7740"></path><path d="M723.4 763.2c9.6-5.6 22-1.6 26.8 8.8 3.6 8 1 17.6-6.2 22.8-8 5.8-18.4 4.4-24.8-2.2" fill="#FFB3E2" p-id="7741"></path><path d="M681 789c-6.8-11.8-2-27.2 10.8-33 9.8-4.4 21.6-1.2 28 7.4 6.2 8.4 5.8 19 0.6 27" fill="#FFB3E2" p-id="7742"></path><path d="M714 797.4c0 5.8-3 11.6-8.6 14.6-7.6 4.2-17.4 1.6-22-5.8-5-8-2.4-18.6 5.8-23.2 4-2.2 8.6-2.8 12.6-1.6" fill="#FFB3E2" p-id="7743"></path><path d="M712 785.2m-8.8 0a8.8 8.8 0 1 0 17.6 0 8.8 8.8 0 1 0-17.6 0Z" fill="#FFB3E2" p-id="7744"></path><path d="M500.6 158.6c-17.4-8.8-39.2-3.4-50.2 13.2l-2 3-3-2c-17.8-11.8-42-6.8-53.8 11-4.8 7.2-12.8 30.4 3.2 48.6 23.6 27 75.6 50 75.6 50s20.6-22 36-47" fill="#E84091" p-id="7745"></path><path d="M632 190.6c-9.4-21-34.2-30.4-55.2-21l-3.4 1.6-1.6-3.4c-9.4-21-34.2-30.4-55.2-21-8.4 3.8-29 20.2-25.2 45.8 5.8 38 40 88.8 40 88.8s59.2-15.4 88.8-40c20-16.4 15.6-42.4 11.8-50.8z" fill="#F27CC0" p-id="7746"></path><path d="M301.2 465.6c0 16.6-15.4 24.4-15.4 24.4s-15.4-7.8-15.4-24.4 15.4-35.6 15.4-35.6 15.4 19 15.4 35.6z" fill="#E84091" p-id="7747"></path><path d="M264 468.6c14.4 8.2 13.4 25.6 13.4 25.6s-14.6 9.4-28.8 1.2c-14.4-8.2-23.2-31.2-23.2-31.2s24.2-3.8 38.6 4.4z" fill="#E84091" p-id="7748"></path><path d="M248.6 502.4c14.4-8.2 28.8 1.2 28.8 1.2s1 17.2-13.4 25.6c-14.4 8.2-38.6 4.4-38.6 4.4s8.8-23 23.2-31.2z" fill="#E84091" p-id="7749"></path><path d="M270.2 532.6c0-16.6 15.4-24.4 15.4-24.4s15.4 7.8 15.4 24.4-15.4 35.6-15.4 35.6-15.4-19-15.4-35.6z" fill="#E84091" p-id="7750"></path><path d="M307.4 529.2c-14.4-8.2-13.4-25.6-13.4-25.6s14.6-9.4 28.8-1.2 23.2 31.2 23.2 31.2-24.2 3.8-38.6-4.4z" fill="#E84091" p-id="7751"></path><path d="M322.8 495.4c-14.4 8.2-28.8-1.2-28.8-1.2s-1-17.2 13.4-25.6c14.4-8.2 38.6-4.4 38.6-4.4s-8.8 22.8-23.2 31.2z" fill="#E84091" p-id="7752"></path><path d="M355.2 498.8s-10.2-8.2-22-12.6c8-9.8 12.8-21.8 12.8-21.8s-13-2-25.6 0.2c2.2-12.6 0.2-25.6 0.2-25.6s-12.4 4.8-22.2 13c-4.4-11.8-12.6-21.8-12.6-21.8s-8.2 10-12.6 21.8c-9.8-8-22-12.8-22-12.8s-2 12.8 0 25.4c-12.6-2.2-25.8-0.2-25.8-0.2s4.6 12.2 12.8 22c-12 4.4-22 12.6-22 12.6s10.2 8.2 22.2 12.6c-8.2 9.8-12.8 22-12.8 22s13 2 25.6 0c-2.2 12.6 0 25.4 0 25.4s12.4-4.8 22.2-13c4.4 12 12.6 22.2 12.6 22.2s8.2-10.2 12.6-22.2c9.8 8 22 12.8 22 12.8s2-12.8 0-25.4c12.6 2.2 25.6 0.2 25.6 0.2s-4.8-12.4-13-22.2c11.8-4.4 22-12.6 22-12.6z m-72.6 11.4c-0.8-2-1.6-3.2-1.6-3.2s-1.4 0-3.6 0.2c0.2-2.2 0.2-3.6 0.2-3.6s-1.2-0.8-3.2-1.6l2-3s-0.6-1.2-1.8-3c2-0.8 3.2-1.6 3.2-1.6s0-1.4-0.2-3.4c2.4 0.2 3.8 0.2 3.8 0.2s0.8-1 1.6-3c1.8 1.2 3 1.8 3 1.8s1.4-0.8 3.2-2.2c0.8 1.8 1.6 2.8 1.6 2.8s1.4 0 3.6-0.2c-0.2 2.2-0.2 3.8-0.2 3.8s1.2 0.8 3 1.6c-1.2 1.8-1.8 2.8-1.8 2.8s0.6 1.2 2 3.2c-2 1-3.2 1.8-3.2 1.8s0 1.4 0.2 3.4c-2.2-0.2-3.8-0.2-3.8-0.2s-0.8 1.2-1.6 3.2c-1.8-1.2-3-1.8-3-1.8s-1.6 0.6-3.4 2z" fill="#E84091" p-id="7753"></path><path d="M838.2 727.6c27.8-13.8 77.2 43.2 77.2 43.2s-27 18.6-54.6 13.2c-14.6-2.8-26.4-11.8-34.2-19.8" fill="#07B1AE" p-id="7754"></path><path d="M689 747.6c-6.8-0.6-41.2-0.4-47.8-3-32-13.2-47-50.8-47-50.8s37-16 69.2-2.8c9.6 4 19.2 10.6 25.6 17.2" fill="#5ACCC3" p-id="7755"></path><path d="M833 713.4c5.8-7.8 13.4-15.4 22.8-20.8 30.2-17.2 69-6 69-6s-10 39.2-40.2 56.4c-16.6 9.6-36 10.4-50 9.2" fill="#5ACCC3" p-id="7756"></path><path d="M232.4 487.6c-5.8-1-17.4-4.2-26.4-12.8-12.4-11.8-14.6-29.2-14.6-29.2s17.6 1.6 29.8 13.2c1.6 1.4 3 3 4.2 4.6" fill="#07B1AE" p-id="7757"></path><path d="M203.2 512.8c16-3.8 31.4 3.4 31.4 3.4s-10.6 13.2-26.8 17c-16 3.8-31.4-3.4-31.4-3.4s10.8-13.2 26.8-17z" fill="#07B1AE" p-id="7758"></path><path d="M567.2 572.8c16-3.8 31.4 3.4 31.4 3.4s-10.6 13.2-26.8 17c-16 3.8-31.4-3.4-31.4-3.4s10.8-13.2 26.8-17z" fill="#5ACCC3" p-id="7759"></path><path d="M499.4 592c-4.6-15.8 1.8-31.6 1.8-31.6s13.8 10 18.4 25.8-1.8 31.6-1.8 31.6-13.8-10-18.4-25.8z" fill="#5ACCC3" p-id="7760"></path><path d="M711.6 589.6c-12.6 6.6-27.2 4-27.2 4s6-13.4 18.6-20.2c12.6-6.6 27.2-4 27.2-4s-6 13.6-18.6 20.2z" fill="#5ACCC3" p-id="7761"></path><path d="M621.4 795c19-7 40 3.2 40 3.2s-9.6 21.4-28.6 28.4-40-3.2-40-3.2 9.8-21.4 28.6-28.4z" fill="#07B1AE" p-id="7762"></path><path d="M840.8 810.6c8 5 10.4 15.8 10.4 15.8s-10.8 2.6-18.8-2.4c-2.4-1.4-4.2-3.4-5.6-5.4-3.6-5-4.8-10.4-4.8-10.4s10.6-2.6 18.8 2.4z" fill="#07B1AE" p-id="7763"></path><path d="M489.2 377v4c0 12.2-9.8 22-22 22s-22-9.8-22-22v-36" fill="#B3BEFF" p-id="7764"></path><path d="M822.4 805c8.2-4.8 7-10.2 5.4-13.2-1.8-3-6-6.6-14.2-1.8-3.4 2-6.8 5.8-9.4 9.4 0.8-4.4 1.4-9.4 0.6-13.2-2-9.2-7.6-10-11-9.2s-8.2 3.8-6.2 13c0.8 4 3.4 8.2 6 11.8-4-2.2-8.4-4.2-12.4-4.6-9.4-1-11.8 4.2-12.2 7.6-0.4 3.4 1 8.8 10.4 9.8 4 0.4 8.8-0.8 13.2-2.2-3.2 3-6.6 6.8-8.2 10.4-3.8 8.6 0.2 12.4 3.4 13.8 3.2 1.4 8.8 1.8 12.6-6.8 1.6-3.6 2-8.6 2-13.2 1.8 4 4.4 8.4 7.4 11 7 6.2 12 3.6 14.2 1 2.4-2.6 4.4-7.8-2.6-14-3-2.6-7.6-4.6-11.8-6 4.4-0.4 9.4-1.6 12.8-3.6z" fill="#7186FF" p-id="7765"></path><path d="M799 679.2l-10.8-19.6-27-12.4-27.6 32-9.4 22.4 17.4 25.2-8.2 7 24.2 20.6 34.8-3.8 13.2-17 20.2-13.6-4-30.2z" fill="#FFAEE8" p-id="7766"></path><path d="M652.6 292.8l-17.4-10.4-240 0.6-22.8 5-17.2 35v50l24 10 14.6-4 6.2-29.2 9-23.4 17-1.2 20.8 14.4v39l6.8 15.6 15.8 7 14.4-10.6 4.4-23 16-14 17 1.4 12 11v39.2l11 14.8h24l9-17v-56l11-11 15.8-3.4 14.2 11.4 10 33 19.6 6 19.4-8v-55.8z" fill="#B3BEFF" p-id="7767"></path><path d="M687.4 756.6l-11.8 18.6 4.6 11.8-2.4 11.2 14.8 14.8 10 8.8 28.2 2 14.8-26.4 7.2-18-7.2-18.8-21.4-2.8-21.2-10z" fill="#FFD2F0" p-id="7768"></path><path d="M930.2 688.2c0.8-3-1-6.2-4.2-7.2-1.4-0.4-28.6-8-56-0.6-6.6-10.4-17.4-17.8-29.2-20.2-9.6-19.2-29-32.8-51.4-34.2-5-0.4-9.6-0.2-14.2 0.6v-121.6c0-25.4-20.6-46-46-46h-56v-134.6c0-25.4-20.6-46-46-46h-62.2c19.2-7.2 43.2-17.6 59-31 21.8-17.8 18.4-46.6 13.4-57.8-5.2-11.6-14.6-20.4-26.6-25-11.2-4.2-23.4-4.2-34.6 0.2-5.4-10.6-14.4-18.8-25.6-23-12-4.6-25-4.2-36.6 1-8.8 4-33 22.2-28.6 52.2 4.6 30.2 26.2 67.4 36 83.4h-126.2c-25.4 0-46 20.6-46 46v134.6c-0.6-0.4-1.4-0.8-2.2-0.8-0.6-0.2-9.4-1.4-19.6-0.8 0.4-10-0.8-18.4-0.8-18.8-0.4-1.8-1.4-3.2-3-4.2s-3.6-1-5.2-0.4c-0.4 0-8.6 3.4-17.4 9-4.6-9.4-10.2-16.4-10.6-16.8-1-1.4-2.8-2.2-4.6-2.2-1.8 0-3.4 0.8-4.6 2.2-0.4 0.4-6 7.4-10.6 16.8-8.6-5.6-16.8-8.8-17.2-9-1.8-0.6-3.6-0.6-5.2 0.4-1.6 0.8-2.8 2.4-3 4.2 0 0.4-1.4 8.8-0.8 18.8-6.4-0.4-12.2-0.2-16 0.2-1-1.2-2-2.2-3.2-3.4-13.6-12.8-32.6-14.8-33.4-14.8-1.8-0.2-3.6 0.4-4.8 1.8s-1.8 3.2-1.6 5c0 0.8 2.6 19.6 16.4 32.8 5.4 5.2 11.6 8.4 17 10.6-3.8 2.4-6 4.4-6.4 4.6-1.4 1-2.2 2.8-2.2 4.6s0.8 3.4 2.2 4.6c0.2 0 1.2 1 3 2.2-4.4-0.2-9 0-13.8 1.2-17.8 4.2-29.6 18.4-30 19-1.2 1.6-1.8 3.2-1.2 5.2s1.8 3.4 3.4 4.2c0.6 0.2 11 5 24.2 5 3.6 0 7.4-0.4 11-1.4 3.8-1 7.4-2.2 10.8-3.8 0.2 0.4 0.2 0.8 0.4 1.2 0.2 0.4 0.6 0.8 1 1.2 0.8 1 2.2 1.8 3.4 2 0.6 0 9.4 1.4 19.8 0.8-0.8 10.4 0.8 19.2 0.8 19.6 0.4 1.4 1 2.6 2 3.6v95.4h-56c-25.4 0-46 20.6-46 46v152c0 14.4 11.6 26 26 26h680c14.4 0 26-11.6 26-26v-66.2c22.6-2 40.6-14.4 41.2-15 2.6-1.8 3.4-5.4 1.6-8.2-0.4-0.6-9.4-14.2-24.6-24.8 25.6-19.6 34.4-52.8 34.8-54.4zM519 153.8c4.8-2.2 9.8-3.2 14.6-3.2 13.8 0 26.8 7.8 32.8 21.2l1.6 3.4c1.4 3 5 4.2 8 2.8l3.4-1.4c18-8 39.2 0 47.2 18 2.4 5.6 8 29-10.2 43.8-23.8 19.8-68.6 33.6-82.4 37.6-7.8-12.2-32.2-52.2-36.8-82.8-3.4-23 16.4-37 21.8-39.4z m397.8 537.4c-3.8 10.8-14.4 34.4-34.8 46.4-0.4 0.2-1 0.4-1.4 0.8-12.4 7-26.6 8.6-38.2 8.4 0.4-1.8 0.8-3.6 1.2-5.6 1.2-8.8-0.2-17.4-3.6-25.2l2.4-4.8c5-5.4 10.2-10 16-13.2 21-11.8 46.8-9 58.4-6.8z m-96.6 132c0 0.6-0.4 1.2-0.6 1.4l-0.2 0.2c-0.2 0.2-0.6 0.6-1.2 0.6-1 0-2.6-0.8-4.4-2.4-2-1.6-4-4.8-5.8-8.6 4.2 1.4 7.6 3.2 9.4 4.8 2.6 2.2 2.8 3.6 2.8 4z m11.4-8.2c-0.4-0.4-0.8-1-1-1.4 2.4 0.2 4.8 0.8 7 2.2 2 1.2 3.6 3.2 4.8 5.2-2.4-0.2-4.8-0.8-7-2.2-1.4-0.8-2.6-2-3.8-3.8z m-12.2-15.2c-2.2 1.4-6 2.4-10 2.8 2.6-3.4 5.2-6.2 7.4-7.4 1.8-1.2 3.2-1.6 4-1.6 1 0 1.4 0.6 1.8 1.2 0.6 1 1.2 2.4-3.2 5z m-15.4 11c-0.8-0.2-1.8-0.2-2.8 0-1 0.2-1.8 0.6-2.6 1.2 0-0.8-0.4-1.8-0.8-2.6-0.6-0.8-1.2-1.6-2-2 0.8-0.4 1.6-1 2.2-1.8 0.8-0.6 1.2-1.6 1.4-2.6 0.6 0.8 1.4 1.4 2.4 1.8 0.8 0.2 1.6 0.4 2.6 0.4-0.4 0.8-0.6 1.6-0.8 2.6-0.2 1.2 0 2 0.4 3z m-0.2-123.6c5.2 0.2 10.4 2.6 14 6.8 3.8 4.4 5.6 10 5 15.8-1 9.2-8.6 16.8-17.8 17.8-8.8 1-16.8-3.6-20.4-11.2 11-6.2 18-17 19.2-29.2zM730 815c-6.8 5-15.4 5.6-22.6 2.6 0.2-0.2 0.4-0.2 0.6-0.4 6.2-3.4 10.6-9.6 11.6-16.6 4 2.6 8.6 3.8 13.2 3.8 1.8 0 3.8-0.2 5.6-0.6-1.6 4.4-4.4 8.4-8.4 11.2z m-69.6-29.6c-5-9.8-1.6-22.6 7.4-28.8 5.2-3.6 11.4-4.8 17.2-3.6-5.6 3.6-9.8 9-11.8 15.4-2.6 7.6-1.6 16.2 2.2 23.2v0.2c-0.4 1.8-0.6 3.6-0.6 5.4-6.2-1.6-11.4-5.8-14.4-11.8z m113-79c-3.6 0-6.4-2.8-6.4-6.4 0-3.6 2.8-6.4 6.4-6.4s6.4 2.8 6.4 6.4c0 3.6-2.8 6.4-6.4 6.4z m-11.8 7.6c-3.2 4.6-8.6 7.4-14.4 7.4-4.4 0-8.6-1.8-11.6-4.8l-0.4-0.4c-2.8-3-4.8-6.8-4.8-11.2-0.2-4.6 1.4-9 4.6-12.4 3.4-3.4 7.6-5.2 12.4-5.2 3.6 0 7.2 1.2 10.2 3.2-1.6 2.8-2.6 6-2.6 9.4 0 5.6 2.6 10.8 6.6 14z m-59.4 92.8c-2.2 1.2-4.8 1.4-7 1-0.6-0.2-1-0.4-1.6-0.4-2.2-0.8-4-2.2-5.2-4.2 0-0.2-0.2-0.2-0.2-0.4-0.2-0.6-0.4-1.2-0.8-1.8-0.8-2-0.8-4.2-0.2-6.4 0.6-2.8 2.4-5 4.8-6.4 1.8-1 3.6-1.6 5.4-1.6 0.6 6 4.8 11 10.4 12.6-0.8 3.4-2.8 6-5.6 7.6z m-17.6-34.8c1.6-4.8 5-8.6 9.6-10.6 7.4-3.4 16-1 20.8 5.4 1 1.4 1.8 3 2.4 4.6-1.6-0.6-3.6-1-5.4-1-4.2 0-8.2 1.8-10.8 4.8-5-0.8-10.4 0-15.2 2.6-0.8 0.4-1.4 1-2.2 1.4-0.2-2.4 0-4.8 0.8-7.2z m27.4 16c-1.6 0-2.8-1.2-2.8-2.8s1.2-2.8 2.8-2.8 2.8 1.2 2.8 2.8-1.2 2.8-2.8 2.8z m16.6-20.2c2.6-0.8 5.2-1 7.8-0.2 3.6 1.2 6.6 3.8 8.2 7.2 2.4 5.4 0.8 11.8-4.2 15.4-4 3-9.4 3.2-13.8 0.8 3.8-7.4 4.6-15.6 2-23.2z m15.2-13.2c0.8 1.4 1.6 3 2.4 4.6-1.8-1.2-4-2.2-6.2-3-5.8-1.8-12.2-1.4-17.6 1.2-5.2-5.6-12.6-8.8-20-9.2-1.8-1.4-3.6-2.6-5.4-3.6 1-0.6 2-1.2 3.2-1.8 15-7.8 34.2-2.6 43.6 11.8z m8-9.8c-0.2 0-0.2-0.2-0.4-0.2-2.4-3-5-5.6-8-7.8 0-0.2-0.2-0.4-0.2-0.4-0.8-1.2-1.6-2.4-2.2-3.6 1.8 0.4 3.8 0.6 5.8 0.8h0.6c10.2 0 19.8-5.4 25.2-14.4 4 10.6 13.2 18 24 20-5.8 6.2-13.6 10.4-22.2 11.2-8 0.8-15.8-1-22.6-5.6z m38.4-52.2c-2.8-6.4-9.2-11-16.8-11-2.4 0-4.6 0.4-6.6 1.2-5.2-4.8-12.2-7.4-19.4-7.4-2.4 0-4.8 0.4-7 1 1.4-4.8 4-9.2 7.8-12.8 5.6-5.2 13-7.6 20.6-6.8 12 1.2 21.6 11 23 23 0.6 4.4 0 8.8-1.6 12.8z m-20.8-47.6c-10.8-0.8-21.4 2.6-29.4 9.8-8 7.2-12.6 17.6-12.6 28.4v0.2l-1 1c-2.2 2.4-4 5-5.4 7.8-8.4-6.8-13.2-17.4-12.4-28.6 1.2-16.6 14.4-30.2 31.2-31.6 11.6-0.8 22.8 4.2 29.6 13z m-51 60.2v0.4c0.2 6.6 2.8 12.8 6.8 17.8 0.2 1.8 0.6 3.6 1 5.4-9.6-2.4-20-1.8-29.2 2.4-2.2-4.2-3.4-8.8-4-13.6-1-10.6 2.4-20.8 9.2-28.8 4 6.6 9.4 12.4 16.2 16.4z m-37.2 13.4c0.6 6.8 2.6 12.8 5.6 18.6-1.4 1-2.6 2.2-3.8 3.4-6.2-0.4-12.4 0.8-18 3.6-0.8-0.6-1.8-1-3-1-6.6-0.6-12.8-2.2-18.6-4.6-22-9-35.6-31.4-41-41.8 11.2-3.6 36.4-9.6 58.6-0.6 7.2 3 14 7.6 20.2 13.4-0.2 3-0.2 6 0 9z m-28.6 82.6c-3.8 6.2-11.2 15.6-22 19.6-10.6 4-22.2 1.6-29.2-0.6 4-6 11.4-15.6 21.8-19.8 10.8-3.8 22.6-1.4 29.4 0.8z m12.2 5c4.2 2.2 8.8 3.4 13.6 3.8 2.6 3.8 6.2 6.8 10.4 8.4 4.6 5.8 10.8 9.8 17.4 11.6-1.4 1-3 1.8-4.6 2.6-11.2 5.2-25.2 1.4-32.2-8.6-3.6-5.4-5.2-11.6-4.6-17.8z m87-10.4c3-3.6 4.8-7.8 5.4-12.4 1.4 1.8 2.8 3.8 3.8 6 4.4 10 1.2 22-7.6 28.6-4.2 3-9 4.6-14 4.6 8-6.4 12.4-16.4 12.4-26.8z m20.2-11.2c-2.4-5.6-6.2-10.4-10.8-14 0-1.2-0.2-2.6-0.4-3.8 5.8 6.4 13 11 21 13.6-1 2.8-1.2 6.4-0.4 10.8-2.8-0.4-5.4-0.2-7.6 0.4-0.2-2.4-0.8-4.8-1.8-7z m23.2-1.8h0.6c0.4 0 0.6 0 0.8 0.2 1 0.6 1.8 2.2 2.2 4.4 0.4 2.2 0.2 5.8-0.6 10.6-1-1.6-4-5.8-4.8-9.4-1-5.2 0.8-5.6 1.8-5.8z m-16.4 20.2h1.8c2.4 0.2 5.4 1.4 9.6 3.6-3 1-7.2 2-10.2 1.8-3.4-0.2-4.6-1.2-4.8-1.6-0.4-0.4-0.4-1-0.4-1.4 0.2-0.8 0.4-2.4 4-2.4z m11 22.2c1-2.2 3.4-5.2 6.6-8.2 0 5.8-0.8 8.8-1.4 10.2-2.2 5-4 4.2-4.8 3.8-0.4-0.2-1-0.4-1.2-1-0.2-0.4-0.6-1.8 0.8-4.8z m10.8-54.6c-10 1-19.4-1.8-26.8-7.8 0.6 0 1.4 0 2-0.2 15.4-1.6 29-10.8 36.4-24.4 7.6-2.2 14.2-7.4 18.2-14.2 1.6 4.8 2.2 10.2 1.6 15.6-2.2 16.2-15.4 29.2-31.4 31z m57.8-86c-2 0.8-4 1.8-6 3-1.8 1-3.6 2.2-5.4 3.4 0.2-2.2 0.2-4.2 0.2-6.4-0.2-3.4-0.6-7-1.4-10.2 5 2.4 9.2 5.8 12.6 10.2zM788.6 638c25 1.4 45.6 22 46.6 47 0.2 4.8-0.2 9.6-1.4 14.2-1.4-4.8-3.6-9.4-7-13.2-6.2-6.6-14.6-10.6-23.6-10.8-2.2-10.2-8.4-19-17-24.4-1.6-4.6-4-8.8-6.8-12.6 3-0.4 6-0.4 9.2-0.2zM361.2 386.4c4.8 3.4 10.6 5.6 17 5.6 16 0 29-13 29-29v-12.6-1-1c0-8.8 7.2-16 16-16s16 7.2 16 16v34c0 15.4 12.6 28 28 28s28-12.6 28-28v-4c0-8.8 7.2-16 16-16s16 7.2 16 16v24c0 15.4 12.6 28 28 28s28-12.6 28-28v-10c0-3.4-2.6-6-6-6s-6 2.6-6 6v10c0 8.8-7.2 16-16 16s-16-7.2-16-16v-26c0-0.6-0.2-1.2-0.2-1.8-1.8-13.6-13.6-24.2-27.8-24.2-15.4 0-28 12.6-28 28v4c0 8.8-7.2 16-16 16s-16-7.2-16-16v-36c0-0.6-0.2-1.2-0.2-1.8-1.8-13.6-13.6-24.2-27.8-24.2-15.4 0-28 12.6-28 28v14.6c0 9.6-7.4 17-17 17s-17-7.4-17-17v-38.6c0-18.8 15.2-34 34-34h232c18.8 0 34 15.2 34 34v38.2c0 9.4-7.6 17-17 17s-17-7.6-17-17v-6.2c0-15.4-12.6-28-28-28s-28 12.6-28 28c0 3.4 2.6 6 6 6s6-2.6 6-6c0-8.8 7.2-16 16-16s16 7.2 16 16v6.2c0 16 13 29 29 29 6.4 0 12.2-2 17-5.6v73h-300v-72.6z m-45.8 163.4c-3-1.6-6.8-3.8-10.2-6.2 0.8-2.6 1.2-5.4 1.4-8 2.6 1.2 5.6 2.2 8.6 3 0.4 3.8 0.4 7.8 0.2 11.2zM279.2 454c2-5 4.4-9.8 6.8-13.2 4 6.4 9.2 16.2 9.2 24.8 0 8.8-5.8 14.6-9.4 17.2-0.2 0-0.2 0-0.4-0.2-3.6-2.6-9.2-8.4-9.2-17 0-3.2 0.8-6.6 1.8-10 0.6-0.4 1-1 1.2-1.6z m40.6 16.4h2c5.2-0.8 10.8-1 15-0.8-3.6 6.8-9.6 16.2-17 20.6-7.4 4.4-15.4 2.2-19.4 0.4v-1c0.6-4.6 2.8-11.6 10-15.8 2.8-1.6 6-2.6 9.4-3.4z m1.8 57.2h-0.8c-3.8-0.6-7.4-1.8-10.4-3.6-7-4-9.2-11-10-15.6 0.2-0.4 0.2-1 0.2-1.4 4.2-1.8 11.8-3.6 19.2 0.6 7.2 4.2 13.4 13.6 17.2 20.8h-2.2c-4 0.2-8.8 0-13.2-0.8z m-37-25.4c-0.4-0.4-1-0.8-1.4-0.8-0.2-0.6-0.6-1-0.6-1.4v-1.6c0.2-0.4 0.6-0.8 0.8-1.4 0.6-0.2 1.2-0.6 1.8-1 0.8 0.2 1.8 0 2.6-0.2 0.2 0.2 0.4 0.2 0.6 0.2 0.2 0.8 0.6 1.4 1.2 2-0.2 0.6-0.2 1.2 0 1.6-0.4 0.4-0.6 0.8-0.8 1.4-0.8 0.2-1.4 0.6-1.8 1.2h-2.4z m-13.4-11.6c-4 1.8-12 4-19.6-0.4-2.8-1.6-5.2-3.8-7.6-6.6-0.2-0.4-0.4-0.8-0.8-1.2-3.6-4.4-6.4-9.2-8.4-13h3.2c7.6 0 16.8 0.8 23 4.4 7.6 4.4 9.6 12.4 10.2 16.8z m-34.6 2.8c1.8 2 4 3.8 6.2 5.4-2.2 1.6-4.2 3.4-6 5.2-3.6-1.6-7-3.6-9.6-5.2 2.4-1.8 5.8-3.6 9.4-5.4z m14 34c-5.4 1-11.2 1-15.6 0.8 2-4 4.8-8.8 8.4-13 0.4-0.4 0.6-0.8 0.8-1.4 2.2-2.6 4.8-4.8 7.4-6.2 7.6-4.4 15.6-2.2 19.6-0.4-0.4 4.4-2.6 12.4-10.2 16.8-2.8 1.6-6 2.6-9.4 3.4h-1z m6 22.4c-0.2-3.4-0.2-7.4 0.2-11.4 2.6-0.6 5.2-1.6 7.6-2.8 0.2 2.8 0.8 5.6 1.6 8.4-3.2 2.4-6.6 4.4-9.4 5.8z m22.4-5.8c-0.2-0.8-0.6-1.4-1.2-2-1-3.2-1.6-6.4-1.6-9.4 0-8.6 5.6-14.4 9.2-17 0.2 0 0.2 0 0.4-0.2 3.6 2.6 9.4 8.4 9.4 17.2 0 8.6-5.2 18.4-9.2 24.8-2.6-3.6-5-8.4-7-13.4z m49.6-45.2c2.2-1.6 4.2-3.4 6.2-5.4 3.8 1.8 7.2 3.6 10 5.4-2.8 1.8-6.2 3.8-9.8 5.4-2-2-4.2-3.8-6.4-5.4z m-12.8-50.8c0.2 3.2 0.2 7.2-0.2 11.2-3 0.8-5.8 1.6-8.6 3-0.2-2.6-0.8-5.2-1.6-7.6 3.6-2.8 7.2-5 10.4-6.6z m-59 0c2.8 1.4 6.2 3.4 9.6 5.8-0.8 2.8-1.4 5.6-1.8 8.6-2.4-1.2-5-2-7.6-2.8-0.4-4.2-0.4-8.2-0.2-11.6z m-57.2 5.6c5.2 1.6 12 4.4 17.4 9.6l0.2 0.2c0.8 0.6 1.6 1.6 2.4 2.4 0 0.2 0 0.6 0.2 0.8 0 0.4 2.2 6.4 6.4 13.4-4.8-1.6-10.8-4.4-16-9.4-5.6-5.2-8.8-11.8-10.6-17z m6.8 73.8c-6.8 1.6-13.4 1-18.6-0.2 4.2-3.4 10-7 16.8-8.6 6.8-1.6 13.4-1 18.6 0.2-4.2 3.4-10 7-16.8 8.6z m52.8 34.6c3.2-1.6 7.2-3.6 11.4-6.4 4.6 9.2 10 15.8 10.4 16.4 1 1.4 2.8 2.2 4.6 2.2h0.4c1.8 0 3.6-0.8 4.8-2.2 0.2-0.2 5.8-7.2 10.4-16.6 8.6 5.8 16.8 9 17.2 9.2 1.8 0.6 3.6 0.4 5.2-0.4s2.8-2.4 3-4.2c0-0.4 1.4-9 0.8-19.4 10.4 0.8 19.4-0.6 19.8-0.6 1.8-0.4 3.2-1.4 4.2-3 0.2-0.2 0.2-0.4 0.2-0.6 2 3.6 4.8 8.2 8.8 11.6-7 6.6-10.8 16.4-11.2 17.6-0.6 1.8-0.4 3.8 0.4 5.2 0.8 1.4 2.4 2.6 4.2 2.8 0.8 0.2 4 0.6 8.2 0.6 3.8 0 8.4-0.4 12.6-1.8 2.2 9.2 8.8 17.6 9.6 18.6 1 1.4 2.8 2.2 4.6 2.2 1.8 0 3.6-0.8 4.8-2.2 0.8-1 7.4-9.4 9.6-18.6 4.2 1.2 8.6 1.6 12.2 1.6 4.4 0 7.8-0.6 8.6-0.6 1.8-0.4 3.2-1.4 4.2-3s1-3.6 0.4-5.2c-0.6-1.4-4.4-11.2-11.6-17.6 3.2-3 5.8-6.6 7.6-9.8 7.8 1 15.4 2.4 23.2 4.6 0.8 0.2 1.6 0.4 2.4 0.8-4.4 6-6.8 12.2-7.2 13.2-0.6 1.8-0.6 3.6 0.4 5.2 0.8 1.6 2.4 2.8 4.2 3 0.8 0 4.4 0.6 9.2 0.6 4.4 0 9.8-0.4 15-2.2 2 10.6 9.6 20.2 10.6 21.4 1 1.4 2.8 2.2 4.6 2.2 1.8 0 3.6-0.8 4.4-2.2 0-0.2 0.2-0.4 0.4-0.6 0.2 3.2 0.8 6.4 1.8 9.6 5 17.6 20 28.6 20.6 29 1.2 0.8 2.4 1.2 3.6 1.2 0.6 0 1.2 0 1.6-0.2 1.8-0.6 3.4-1.8 4-3.6 0.2-0.8 6-15 3.2-30.6 10 7.2 20.8 14.2 34.2 20.4 24.4 11.4 46.2 17 65 17 12.4 0 23.6-2.4 33.4-7.4 10.8-5.4 18.2-12.6 23.4-20 0.2 0 0.4 0.2 0.6 0.2 0.4 0 3.6 0.6 8.2 0.6 6.2 0 14.8-1 22.8-5.2 14.4-7.4 21.2-22.4 21.4-23 0.8-1.6 0.6-3.6-0.2-5.2s-2.4-2.6-4.2-3c-0.8-0.2-16.8-3-31.2 4.6-2 1-3.8 2.2-5.4 3.6 1.8-10.2 0-19.6-5-27.4-5.4-8-14-13.8-24.6-15.8-19.4-3.8-35.2 12-39.2 29.4-1.4 6.6-0.4 13 3 18.4 3.8 6.2 11 10.8 19.4 12.6 6.8 1.6 13.4 0 18.2-3.8 4.6-3.6 7-9 7-15 0-8.6-3.4-12.6-6.4-14.6-6.6-4.4-14.6-1-15.6-0.6-3 1.2-4.4 4.8-3 7.8 1.2 3 4.8 4.4 7.8 3.2 1.4-0.6 3.6-0.8 4.2-0.4 0.2 0.2 1 1.4 1 4.6 0 2.4-0.8 4.2-2.4 5.6-2 1.6-5 2-8.2 1.4-4-0.8-9.2-3.2-11.8-7.2-1.8-2.6-2.2-5.8-1.4-9.4 2.2-10 11.6-22.8 25.2-20.2 7.4 1.4 13.2 5.2 16.8 10.6 3.6 5.6 4.4 12.6 2.6 21-2.8 12.2-11.8 28.2-28.4 36.4-21 10.4-49.4 7.4-85.2-8.6 1.6-0.2 3-0.6 4.4-1 18-4.2 29.8-18.4 30.2-19 1.2-1.6 1.6-3.4 1.2-5.2-0.6-1.8-1.8-3.2-3.4-4-0.8-0.4-17.6-8-35.4-3.8-12.8 3-22.6 11.2-27 15.8-7-4.8-13.2-9.6-19.6-14.4l-3.8-2.8-0.2-0.2h2.2c4.6 0 8.4-0.6 9.4-0.6 1.8-0.4 3.2-1.4 4.2-3 0.8-1.6 1-3.6 0.4-5.2-0.6-1.4-5-13-13.2-20 7.8-7.2 12.4-18.2 12.8-19.4 0.6-1.6 0.6-3.6-0.4-5.2-0.8-1.6-2.4-2.8-4.2-3-1.6-0.2-13.6-1.8-24 1.6-2-10.6-9.6-20.2-10.6-21.4-1-1.4-2.8-2.2-4.6-2.2-1.8 0-3.4 0.8-4.6 2.2-1 1.2-8.6 10.6-10.6 21.2-10.2-3.8-22.6-1.8-24.2-1.6-1.8 0.4-3.4 1.4-4.2 3-1 1.6-1 3.6-0.4 5.2 0.4 1 3 7.8 7.8 14-7.6-2-15-3.4-22.2-4.6-0.2-0.4-0.4-1-0.6-1.4-0.8-1.4-2.4-2.6-4.2-2.8-1.4-0.2-11.8-1.8-21 1.2-2.2-9.2-8.6-17.2-9.4-18.2-1-1.4-2.8-2.2-4.6-2.2-1.8 0-3.4 0.8-4.6 2.2-0.8 1-7.4 9.2-9.6 18.4-9.2-3-19.8-1.2-21-1-1.8 0.4-3.2 1.4-4.2 3v0.2c-1.6-3.2-3.8-7.4-6.6-11.6 9.2-4.6 15.8-10.2 16.2-10.4 1.4-1 2.2-2.8 2.2-4.6 0-1.8-0.8-3.4-2.2-4.6-0.4-0.2-7.4-5.8-16.6-10.4 3.4-5 6-10 7.6-13.2h379.2c18.8 0 34 15.2 34 34v120c-7.4-3.6-15.8-5.4-24.4-4.8-21.2 1.8-38.4 18.2-41.6 38.8h-438V562z m117-23.4c0.2 0.6 0.6 1.2 1 1.6 0.2 0.6 0.4 1 0.6 1.6-0.4 0.2-0.8 0.2-1.2 0.2H374c-1-0.2-2.2-0.4-3.2-1-2.4-1.4-4.8-4.2-6.6-7 3.4 0.2 6.8 0.8 9.4 2.2 1.2 0.6 2 1.4 2.6 2.4z m25.2-0.2c0.6-1 1.4-1.8 2.4-2.4 2.6-1.4 6-2 9.4-2.2-1.8 2.8-4 5.6-6.4 7-2.6 1.4-5 1.2-7 0.8l0.6-1.2c0.2-0.6 0.6-1.4 1-2z m-0.2 19c-0.2-0.2-0.2-0.4-0.4-0.8-0.4-0.8-0.8-1.6-1-2.4 0.4-0.2 0.8-0.2 1.2-0.2h2.8c1 0.2 2 0.4 3 1 2.6 1.6 4.8 4.2 6.6 7-3.4 0-7-0.6-9.4-2-1.2-0.6-2-1.6-2.8-2.6z m-30.4-2.2c1.2-0.6 2.2-1 3.2-1H376.6c0.4 0 0.8 0.2 1 0.2-0.6 1.8-1.8 4.2-4.2 5.6s-5.8 2-9.2 2.2c1.8-2.8 4-5.6 6.6-7z m18 5.6c1.4 1.4 2.8 3.6 2.8 6.4 0 2.8-1.2 6.2-2.8 9.2-1.6-3-2.8-6.4-2.8-9.2s1.4-5 2.8-6.4z m2-28.2c-0.4 0.6-0.6 1-1 1.6-0.4 0.4-0.8 1-1.2 1.4-1.4-1.4-2.8-3.6-2.8-6.4 0-2.8 1.2-6.2 2.8-9.2 1.6 3 2.8 6.4 2.8 9.2 0.2 1.2-0.2 2.4-0.6 3.4z m75.6 11.6c1.8-1 3.6-1.4 5.2-1.4 1.4 0 2.8 0.4 3.8 0.8-0.6 2.2-2 5.4-5.2 7.2-3.2 1.8-8 2.6-12.2 2.6 2.2-3.6 5.2-7.4 8.4-9.2z m20.6 5.8c1.8 1.6 3.8 4.4 3.8 8.2 0 3.8-1.8 8.2-3.8 11.8-2-3.8-3.8-8-3.8-11.8 0-3.8 2-6.6 3.8-8.2z m17.4 21.6c3.6 4 7.4 9.6 9.4 16 2 6.8 1.6 13.6 0.8 18.8-3.4-3.8-7.4-9.4-9.4-16.2-2-6.6-1.6-13.4-0.8-18.6z m-0.6-21c-3.2-1.8-4.6-4.8-5.2-7.2 2.4-0.6 5.8-1 9 0.6 3.4 1.8 6.2 5.6 8.4 9.2-4.2-0.2-9-0.8-12.2-2.6z m3.8-21.2c-3.2 2-6.6 1.6-9 0.8 0.6-2.4 2-5.6 5.2-7.4 3.2-1.8 7.8-2.4 12-2.6-2.2 3.6-5 7.2-8.2 9.2z m-20.6-5.6c-1.8-1.6-3.8-4.4-3.8-8.2 0-3.8 1.8-8.2 3.8-11.8 2 3.8 3.8 8 3.8 11.8 0 3.8-2 6.6-3.8 8.2z m-11.6 6.4c-2.4 0.6-5.8 1-9-0.8s-6.2-5.6-8.4-9.2c4.2 0 9 0.6 12.2 2.8 3.2 1.8 4.6 4.8 5.2 7.2z m76.4 57c4.2-3.4 10-7 16.8-8.6 6.8-1.6 13.4-1 18.6 0.2-4 3.4-9.8 7-16.8 8.6-6.8 1.6-13.4 1-18.6-0.2z m143.2 0.6c2.6-3.2 6.2-6.8 10.8-9.2s9.6-3.2 13.8-3.6c-2.6 3.4-6.2 6.8-10.8 9.2s-9.6 3.2-13.8 3.6zM191.2 671H464c-43 11-104.8 29.8-153.8 56.8-52.2 28.4-116 35.4-153 37v-59.8c0-18.8 15.2-34 34-34z m660 200h-680c-7.8 0-14-6.2-14-14v-80.2c38.2-1.6 104.4-8.8 158.8-38.4 82.2-45 201-67.2 202.2-67.4h178.8c0.2 1.8 0.4 3.6 0.8 5.2-6.2 5.6-10.8 12.4-13.6 20-5.8-4.6-12-8.4-18.4-11-34-14-72.2 2.2-73.8 2.8-3 1.4-4.4 4.8-3.2 7.8 0.6 1.8 16.2 40.2 50.2 54.2 4.4 1.8 9.2 3.2 14.2 4.2-2.6 3.2-4.4 7-5.6 11-12.6 0.8-54.6 3.6-92.2 16.2-19.4 6.6-36.6 14.6-54.8 23.2-22 10.4-44.8 21-75 30.8-41 13-67.8 5.2-83-3.6-16-9.2-23.6-21.8-25.4-30-2.4-10.4-1-19.8 3.6-27 4.4-7 12.2-12 21.6-13.8 16.2-3.2 29.6 11 32.8 26 3.6 16.6-13.8 21.4-17.2 22.2-8.2 1.8-14.8-2.6-16.8-11.4-1.8-7.6 8.4-10.4 9.6-10.8 3.4-1 5.2-4.2 4.4-7.4-1-3.4-4.2-5.2-7.4-4.4-7.8 2.2-21.8 10-18.4 25.2 3.4 15.2 16.6 23.8 31.2 20.6 16.4-3.8 30.8-16.4 26.4-36.6-4.4-20.6-23.6-39.8-46.8-35.2-12.6 2.6-23 9.4-29.4 19-6.6 10-8.4 22.4-5.4 36.2 2.4 11 12 26.6 31.2 37.8 10.8 6.2 26.6 12 48 12 12.8 0 27.6-2 44.6-7.6 31-10 54.2-20.8 76.6-31.4 18-8.4 34.8-16.4 53.6-22.6 33.6-11.2 72.6-14.4 86.6-15.4 0.2 3.6 0.8 7 2.2 10.4-8.2-1.6-18.6-2-28.6 1.6-21 7.8-31.6 30.6-32 31.6-1.4 2.8-0.2 6.4 2.8 7.8 0.6 0.2 13 6.2 28 6.2 5.4 0 11-0.8 16.6-2.8 7.8-2.8 14.2-7.8 19.2-13 1.2 4.2 3 8.2 5.6 11.8 7.4 10.2 19.2 16 31.2 16 5.4 0 10.8-1.2 16-3.6 6.2-2.8 11.6-7.2 15.4-12.4 0.2 0 0.4 0 0.6-0.2 0.4 0.4 0.8 0.6 1.2 0.8 4.8 2.2 10 3.2 15 3.2 7.6 0 15.2-2.4 21.4-7.2 3.6-2.8 6.8-6.2 9-10 2.6 1.6 5.6 2.6 9.4 3-2.2 5.2-2.6 9.8-1 13.8 1.4 3.6 4 6.2 7.6 7.8 1.8 0.8 3.8 1.2 6 1.2 5.2 0 10.8-3 14.6-11.2 4.4 3.8 8.8 5.6 13.2 5.2 3.6-0.2 7-2 9.4-4.8 0.8-0.8 1.4-1.8 2-2.8 4.8 2.6 9.8 3.2 14 3.2 4.2 0 7.4-0.6 7.8-0.8 3.2-0.8 5.2-4 4.4-7.2-0.2-1.4-3.2-13.4-13-19.6-3.2-2-6.8-3.2-10-3.6 2-4.4 1.4-9-0.6-12.8l-0.2-0.2c-3.6-5.8-11.4-10.4-22.4-4-0.2-1.4-0.6-2.6-1-3.8 6.2-1.8 11.8-4.8 16.6-8.8 8 7.2 19.4 15 33.4 17.8 2 0.2 3.8 0.6 5.6 0.6v66.4c-0.2 8-6.4 14.2-14.2 14.2z m55.2-101.8c-8.8 4.6-26.8 12.4-44.6 9-11.4-2.2-20.8-8.6-27.4-14.6 1.2-1.6 2.4-3.4 3.4-5.2 2.2 0.2 4.4 0.2 6.6 0.2 12.2 0 26.8-2 40-8.6 10 6 17.8 14 22 19.2z" fill="#2C3AC4" p-id="7769"></path><path d="M577.2 366.4c-3.4 0-6 2.6-6 6v4c0 3.4 2.6 6 6 6s6-2.6 6-6v-4c0-3.4-2.6-6-6-6z" fill="#2C3AC4" p-id="7770"></path></svg>